<svg width="10" height="8" viewBox="0 0 10 8" fill="none" xmlns="http://www.w3.org/2000/svg">
<path d="M2.92563 3.31147C2.46168 2.80026 1.67115 2.76194 1.15994 3.2259C0.648726 3.68985 0.610413 4.48038 1.07436 4.99159L2.92563 3.31147ZM4.2944 6.67966L3.36876 7.51972C3.60988 7.7854 3.95354 7.93466 4.31229 7.92953C4.67104 7.92439 5.01028 7.76535 5.2437 7.49288L4.2944 6.67966ZM9.69466 2.2971C10.1438 1.77281 10.0829 0.983703 9.55858 0.534574C9.0343 0.0854455 8.24519 0.146372 7.79606 0.670657L9.69466 2.2971ZM1.07436 4.99159L3.36876 7.51972L5.22003 5.8396L2.92563 3.31147L1.07436 4.99159ZM5.2437 7.49288L9.69466 2.2971L7.79606 0.670657L3.3451 5.86644L5.2437 7.49288Z" fill="#47BF7C"/>
</svg>
